<mxfile host="app.diagrams.net" modified="2024-06-27T08:03:48.707Z" agent="Mozilla/5.0 (Macintosh; Intel Mac OS X 10_15_7) AppleWebKit/537.36 (KHTML, like Gecko) Chrome/126.0.0.0 Safari/537.36" etag="bezp1FZVNVSI1gKo0nIn" version="24.6.3" type="device">
  <diagram name="Page-1" id="2z_yzARBqiGoR72a2h59">
    <mxGraphModel dx="2899" dy="2286" grid="1" gridSize="10" guides="1" tooltips="1" connect="1" arrows="1" fold="1" page="1" pageScale="1" pageWidth="850" pageHeight="1100" math="0" shadow="0">
      <root>
        <mxCell id="0" />
        <mxCell id="1" parent="0" />
        <mxCell id="HeFp6EwtRoWDKLP-dGdm-49" value="" style="whiteSpace=wrap;html=1;fillColor=none;dashed=1;dashPattern=1 2;" vertex="1" parent="1">
          <mxGeometry x="-410" y="-530" width="1850" height="1630" as="geometry" />
        </mxCell>
        <mxCell id="BtRRs1AipNndvJUo6PaD-9" value="" style="group" parent="1" vertex="1" connectable="0">
          <mxGeometry x="-69" y="160" width="156" height="183" as="geometry" />
        </mxCell>
        <mxCell id="BtRRs1AipNndvJUo6PaD-10" value="" style="whiteSpace=wrap;html=1;dashed=1;dashPattern=8 8;fillColor=none;strokeColor=#9673a6;" parent="BtRRs1AipNndvJUo6PaD-9" vertex="1">
          <mxGeometry width="156" height="183" as="geometry" />
        </mxCell>
        <mxCell id="BtRRs1AipNndvJUo6PaD-11" value="CBS Adapters" style="text;html=1;align=center;verticalAlign=middle;whiteSpace=wrap;rounded=0;fontSize=9;fillColor=#d5e8d4;strokeColor=#82b366;" parent="BtRRs1AipNndvJUo6PaD-9" vertex="1">
          <mxGeometry width="75" height="23" as="geometry" />
        </mxCell>
        <mxCell id="BtRRs1AipNndvJUo6PaD-14" value="" style="whiteSpace=wrap;html=1;dashed=1;dashPattern=8 8;fillColor=none;strokeColor=#9673a6;movable=1;resizable=1;rotatable=1;deletable=1;editable=1;locked=0;connectable=1;" parent="1" vertex="1">
          <mxGeometry x="-72" y="392" width="156" height="183" as="geometry" />
        </mxCell>
        <mxCell id="BtRRs1AipNndvJUo6PaD-3" value="" style="whiteSpace=wrap;html=1;" parent="1" vertex="1">
          <mxGeometry x="-62" y="160" width="149" height="184" as="geometry" />
        </mxCell>
        <mxCell id="o0oqG4mP_P4ncCSwfBv9-4" style="edgeStyle=orthogonalEdgeStyle;rounded=0;orthogonalLoop=1;jettySize=auto;html=1;flowAnimation=1;dashed=1;dashPattern=12 12;" parent="1" target="o0oqG4mP_P4ncCSwfBv9-3" edge="1">
          <mxGeometry relative="1" as="geometry">
            <mxPoint x="1286" y="421.76923076923094" as="sourcePoint" />
          </mxGeometry>
        </mxCell>
        <mxCell id="o0oqG4mP_P4ncCSwfBv9-2" value="" style="whiteSpace=wrap;html=1;dashed=1;" parent="1" vertex="1">
          <mxGeometry x="-81" y="-290" width="1111" height="1157" as="geometry" />
        </mxCell>
        <mxCell id="o0oqG4mP_P4ncCSwfBv9-6" style="edgeStyle=orthogonalEdgeStyle;rounded=0;orthogonalLoop=1;jettySize=auto;html=1;entryX=1;entryY=0.75;entryDx=0;entryDy=0;flowAnimation=1;dashed=1;" parent="1" source="o0oqG4mP_P4ncCSwfBv9-3" target="o0oqG4mP_P4ncCSwfBv9-5" edge="1">
          <mxGeometry relative="1" as="geometry" />
        </mxCell>
        <mxCell id="o0oqG4mP_P4ncCSwfBv9-3" value="ingress" style="ellipse;whiteSpace=wrap;html=1;fillColor=#B3B3B3;" parent="1" vertex="1">
          <mxGeometry x="633" y="406.5" width="54" height="53" as="geometry" />
        </mxCell>
        <mxCell id="o0oqG4mP_P4ncCSwfBv9-8" style="edgeStyle=orthogonalEdgeStyle;rounded=0;orthogonalLoop=1;jettySize=auto;html=1;exitX=0.5;exitY=0;exitDx=0;exitDy=0;entryX=0.5;entryY=1;entryDx=0;entryDy=0;flowAnimation=1;dashed=1;" parent="1" source="o0oqG4mP_P4ncCSwfBv9-5" target="o0oqG4mP_P4ncCSwfBv9-7" edge="1">
          <mxGeometry relative="1" as="geometry">
            <Array as="points">
              <mxPoint x="571" y="172" />
              <mxPoint x="309" y="172" />
              <mxPoint x="309" y="129" />
              <mxPoint x="274" y="129" />
            </Array>
          </mxGeometry>
        </mxCell>
        <mxCell id="o0oqG4mP_P4ncCSwfBv9-10" style="edgeStyle=orthogonalEdgeStyle;rounded=0;orthogonalLoop=1;jettySize=auto;html=1;exitX=0;exitY=0.5;exitDx=0;exitDy=0;entryX=1;entryY=0.5;entryDx=0;entryDy=0;dashed=1;flowAnimation=1;" parent="1" source="o0oqG4mP_P4ncCSwfBv9-5" target="o0oqG4mP_P4ncCSwfBv9-9" edge="1">
          <mxGeometry relative="1" as="geometry" />
        </mxCell>
        <mxCell id="o0oqG4mP_P4ncCSwfBv9-13" style="edgeStyle=orthogonalEdgeStyle;rounded=0;orthogonalLoop=1;jettySize=auto;html=1;exitX=0.25;exitY=1;exitDx=0;exitDy=0;entryX=0.75;entryY=0;entryDx=0;entryDy=0;flowAnimation=1;" parent="1" source="o0oqG4mP_P4ncCSwfBv9-5" target="o0oqG4mP_P4ncCSwfBv9-11" edge="1">
          <mxGeometry relative="1" as="geometry">
            <Array as="points">
              <mxPoint x="541" y="403" />
              <mxPoint x="413" y="403" />
            </Array>
          </mxGeometry>
        </mxCell>
        <mxCell id="HeFp6EwtRoWDKLP-dGdm-45" style="edgeStyle=orthogonalEdgeStyle;rounded=0;orthogonalLoop=1;jettySize=auto;html=1;exitX=0.75;exitY=0;exitDx=0;exitDy=0;entryX=0;entryY=0.5;entryDx=0;entryDy=0;dashed=1;flowAnimation=1;" edge="1" parent="1" source="o0oqG4mP_P4ncCSwfBv9-5" target="HeFp6EwtRoWDKLP-dGdm-44">
          <mxGeometry relative="1" as="geometry" />
        </mxCell>
        <mxCell id="o0oqG4mP_P4ncCSwfBv9-5" value="api gateway" style="whiteSpace=wrap;html=1;fillColor=#fff2cc;strokeColor=#d6b656;" parent="1" vertex="1">
          <mxGeometry x="511" y="234" width="120" height="60" as="geometry" />
        </mxCell>
        <mxCell id="BtRRs1AipNndvJUo6PaD-23" style="edgeStyle=orthogonalEdgeStyle;rounded=0;orthogonalLoop=1;jettySize=auto;html=1;exitX=1;exitY=0.5;exitDx=0;exitDy=0;entryX=0.5;entryY=1;entryDx=0;entryDy=0;dashed=1;flowAnimation=1;" parent="1" source="o0oqG4mP_P4ncCSwfBv9-7" target="BtRRs1AipNndvJUo6PaD-22" edge="1">
          <mxGeometry relative="1" as="geometry" />
        </mxCell>
        <mxCell id="aZxM8rf4FDybqePDUtTl-4" style="edgeStyle=orthogonalEdgeStyle;rounded=0;orthogonalLoop=1;jettySize=auto;html=1;exitX=0;exitY=0.5;exitDx=0;exitDy=0;entryX=0.75;entryY=0;entryDx=0;entryDy=0;dashed=1;flowAnimation=1;" parent="1" source="o0oqG4mP_P4ncCSwfBv9-7" target="BtRRs1AipNndvJUo6PaD-16" edge="1">
          <mxGeometry relative="1" as="geometry">
            <Array as="points">
              <mxPoint x="214" y="53" />
              <mxPoint x="49" y="53" />
            </Array>
          </mxGeometry>
        </mxCell>
        <mxCell id="aZxM8rf4FDybqePDUtTl-5" value="authentication/authorization" style="edgeLabel;html=1;align=center;verticalAlign=middle;resizable=0;points=[];" parent="aZxM8rf4FDybqePDUtTl-4" vertex="1" connectable="0">
          <mxGeometry x="-0.2514" relative="1" as="geometry">
            <mxPoint x="-45" y="36" as="offset" />
          </mxGeometry>
        </mxCell>
        <mxCell id="o0oqG4mP_P4ncCSwfBv9-7" value="auth service" style="whiteSpace=wrap;html=1;fillColor=#fff2cc;strokeColor=#d6b656;" parent="1" vertex="1">
          <mxGeometry x="178" y="26" width="120" height="60" as="geometry" />
        </mxCell>
        <mxCell id="o0oqG4mP_P4ncCSwfBv9-12" style="edgeStyle=orthogonalEdgeStyle;rounded=0;orthogonalLoop=1;jettySize=auto;html=1;exitX=0.75;exitY=1;exitDx=0;exitDy=0;entryX=0.25;entryY=0;entryDx=0;entryDy=0;flowAnimation=1;" parent="1" source="o0oqG4mP_P4ncCSwfBv9-9" target="o0oqG4mP_P4ncCSwfBv9-11" edge="1">
          <mxGeometry relative="1" as="geometry" />
        </mxCell>
        <mxCell id="o0oqG4mP_P4ncCSwfBv9-15" style="edgeStyle=orthogonalEdgeStyle;rounded=0;orthogonalLoop=1;jettySize=auto;html=1;exitX=0.25;exitY=0;exitDx=0;exitDy=0;dashed=1;flowAnimation=1;entryX=1.022;entryY=0.409;entryDx=0;entryDy=0;entryPerimeter=0;" parent="1" source="o0oqG4mP_P4ncCSwfBv9-9" target="BtRRs1AipNndvJUo6PaD-16" edge="1">
          <mxGeometry relative="1" as="geometry">
            <Array as="points">
              <mxPoint x="229" y="212" />
              <mxPoint x="111" y="212" />
              <mxPoint x="111" y="229" />
            </Array>
          </mxGeometry>
        </mxCell>
        <mxCell id="BtRRs1AipNndvJUo6PaD-21" value="core-banking" style="edgeLabel;html=1;align=center;verticalAlign=middle;resizable=0;points=[];" parent="o0oqG4mP_P4ncCSwfBv9-15" vertex="1" connectable="0">
          <mxGeometry x="0.1144" y="1" relative="1" as="geometry">
            <mxPoint x="25" as="offset" />
          </mxGeometry>
        </mxCell>
        <mxCell id="BtRRs1AipNndvJUo6PaD-18" value="payments" style="edgeStyle=orthogonalEdgeStyle;rounded=0;orthogonalLoop=1;jettySize=auto;html=1;exitX=0;exitY=0.75;exitDx=0;exitDy=0;entryX=1;entryY=0.5;entryDx=0;entryDy=0;flowAnimation=1;dashed=1;" parent="1" source="o0oqG4mP_P4ncCSwfBv9-9" target="BtRRs1AipNndvJUo6PaD-5" edge="1">
          <mxGeometry relative="1" as="geometry">
            <Array as="points">
              <mxPoint x="194" y="287" />
              <mxPoint x="141" y="287" />
              <mxPoint x="141" y="483" />
            </Array>
          </mxGeometry>
        </mxCell>
        <mxCell id="o0oqG4mP_P4ncCSwfBv9-9" value="banking service" style="whiteSpace=wrap;html=1;fillColor=#fff2cc;strokeColor=#d6b656;" parent="1" vertex="1">
          <mxGeometry x="166" y="264" width="120" height="60" as="geometry" />
        </mxCell>
        <mxCell id="HeFp6EwtRoWDKLP-dGdm-34" style="edgeStyle=orthogonalEdgeStyle;rounded=0;orthogonalLoop=1;jettySize=auto;html=1;exitX=0;exitY=0.5;exitDx=0;exitDy=0;entryX=0.5;entryY=0;entryDx=0;entryDy=0;dashed=1;flowAnimation=1;" edge="1" parent="1" source="o0oqG4mP_P4ncCSwfBv9-11" target="HeFp6EwtRoWDKLP-dGdm-29">
          <mxGeometry relative="1" as="geometry" />
        </mxCell>
        <mxCell id="HeFp6EwtRoWDKLP-dGdm-37" value="kyc" style="edgeLabel;html=1;align=center;verticalAlign=middle;resizable=0;points=[];" vertex="1" connectable="0" parent="HeFp6EwtRoWDKLP-dGdm-34">
          <mxGeometry x="0.2173" y="2" relative="1" as="geometry">
            <mxPoint as="offset" />
          </mxGeometry>
        </mxCell>
        <mxCell id="o0oqG4mP_P4ncCSwfBv9-11" value="user service" style="whiteSpace=wrap;html=1;fillColor=#fff2cc;strokeColor=#d6b656;" parent="1" vertex="1">
          <mxGeometry x="323" y="484" width="120" height="60" as="geometry" />
        </mxCell>
        <mxCell id="o0oqG4mP_P4ncCSwfBv9-17" style="edgeStyle=orthogonalEdgeStyle;rounded=0;orthogonalLoop=1;jettySize=auto;html=1;flowAnimation=1;dashed=1;entryX=1;entryY=0.5;entryDx=0;entryDy=0;" parent="1" source="o0oqG4mP_P4ncCSwfBv9-14" target="o0oqG4mP_P4ncCSwfBv9-16" edge="1">
          <mxGeometry relative="1" as="geometry" />
        </mxCell>
        <mxCell id="BtRRs1AipNndvJUo6PaD-2" style="edgeStyle=orthogonalEdgeStyle;rounded=0;orthogonalLoop=1;jettySize=auto;html=1;exitX=0;exitY=0.5;exitDx=0;exitDy=0;flowAnimation=1;dashed=1;" parent="1" source="BtRRs1AipNndvJUo6PaD-4" target="BtRRs1AipNndvJUo6PaD-1" edge="1">
          <mxGeometry relative="1" as="geometry" />
        </mxCell>
        <mxCell id="o0oqG4mP_P4ncCSwfBv9-14" value="mambu-adapter" style="whiteSpace=wrap;html=1;fillColor=#f8cecc;strokeColor=#b85450;" parent="1" vertex="1">
          <mxGeometry x="-55" y="188" width="116" height="34" as="geometry" />
        </mxCell>
        <mxCell id="o0oqG4mP_P4ncCSwfBv9-16" value="Mambu CBS" style="whiteSpace=wrap;html=1;fillColor=#f8cecc;strokeColor=#b85450;" parent="1" vertex="1">
          <mxGeometry x="-309" y="100" width="120" height="98" as="geometry" />
        </mxCell>
        <mxCell id="BtRRs1AipNndvJUo6PaD-1" value="Tuum CBS" style="whiteSpace=wrap;html=1;fillColor=#f8cecc;strokeColor=#b85450;" parent="1" vertex="1">
          <mxGeometry x="-309" y="239" width="120" height="101" as="geometry" />
        </mxCell>
        <mxCell id="BtRRs1AipNndvJUo6PaD-8" value="" style="group" parent="1" vertex="1" connectable="0">
          <mxGeometry x="-66" y="154" width="155" height="183" as="geometry" />
        </mxCell>
        <mxCell id="BtRRs1AipNndvJUo6PaD-16" value="" style="whiteSpace=wrap;html=1;dashed=1;dashPattern=8 8;fillColor=none;strokeColor=#9673a6;" parent="BtRRs1AipNndvJUo6PaD-8" vertex="1">
          <mxGeometry x="-0.9935897435897436" width="155" height="183" as="geometry" />
        </mxCell>
        <mxCell id="BtRRs1AipNndvJUo6PaD-6" value="CBS Adapters" style="text;html=1;align=center;verticalAlign=middle;whiteSpace=wrap;rounded=0;fontSize=9;fillColor=#d5e8d4;strokeColor=#82b366;" parent="BtRRs1AipNndvJUo6PaD-8" vertex="1">
          <mxGeometry width="74.51923076923077" height="23" as="geometry" />
        </mxCell>
        <mxCell id="BtRRs1AipNndvJUo6PaD-4" value="tuum-adapter" style="whiteSpace=wrap;html=1;fillColor=#f8cecc;strokeColor=#b85450;" parent="1" vertex="1">
          <mxGeometry x="-55" y="234" width="117" height="33" as="geometry" />
        </mxCell>
        <mxCell id="BtRRs1AipNndvJUo6PaD-20" style="edgeStyle=orthogonalEdgeStyle;rounded=0;orthogonalLoop=1;jettySize=auto;html=1;exitX=0;exitY=0.5;exitDx=0;exitDy=0;entryX=1;entryY=0.5;entryDx=0;entryDy=0;flowAnimation=1;dashed=1;" parent="1" source="BtRRs1AipNndvJUo6PaD-5" target="BtRRs1AipNndvJUo6PaD-19" edge="1">
          <mxGeometry relative="1" as="geometry" />
        </mxCell>
        <mxCell id="BtRRs1AipNndvJUo6PaD-19" value="Numeral" style="whiteSpace=wrap;html=1;fillColor=#dae8fc;strokeColor=#6c8ebf;" parent="1" vertex="1">
          <mxGeometry x="-310" y="585" width="120" height="101" as="geometry" />
        </mxCell>
        <mxCell id="HeFp6EwtRoWDKLP-dGdm-16" style="edgeStyle=orthogonalEdgeStyle;rounded=0;orthogonalLoop=1;jettySize=auto;html=1;exitX=0;exitY=0.5;exitDx=0;exitDy=0;entryX=0.5;entryY=1;entryDx=0;entryDy=0;dashed=1;flowAnimation=1;" edge="1" parent="1" source="BtRRs1AipNndvJUo6PaD-22" target="BtRRs1AipNndvJUo6PaD-27">
          <mxGeometry relative="1" as="geometry" />
        </mxCell>
        <mxCell id="BtRRs1AipNndvJUo6PaD-22" value="otp service" style="whiteSpace=wrap;html=1;fillColor=#fff2cc;strokeColor=#d6b656;" parent="1" vertex="1">
          <mxGeometry x="506" y="-32" width="120" height="39" as="geometry" />
        </mxCell>
        <mxCell id="BtRRs1AipNndvJUo6PaD-24" value="Twilio" style="whiteSpace=wrap;html=1;fillColor=#f8cecc;strokeColor=#b85450;" parent="1" vertex="1">
          <mxGeometry x="387" y="-458" width="120" height="98" as="geometry" />
        </mxCell>
        <mxCell id="BtRRs1AipNndvJUo6PaD-25" value="" style="group" parent="1" vertex="1" connectable="0">
          <mxGeometry x="363" y="-250" width="156" height="183" as="geometry" />
        </mxCell>
        <mxCell id="BtRRs1AipNndvJUo6PaD-27" value="" style="whiteSpace=wrap;html=1;dashed=1;dashPattern=8 8;fillColor=none;strokeColor=#9673a6;" parent="BtRRs1AipNndvJUo6PaD-25" vertex="1">
          <mxGeometry x="-1" width="156" height="183" as="geometry" />
        </mxCell>
        <mxCell id="BtRRs1AipNndvJUo6PaD-26" value="Notification Adapters" style="text;html=1;align=center;verticalAlign=middle;whiteSpace=wrap;rounded=0;fontSize=9;fillColor=#D4E1F5;strokeColor=#82b366;" parent="BtRRs1AipNndvJUo6PaD-25" vertex="1">
          <mxGeometry width="99" height="23" as="geometry" />
        </mxCell>
        <mxCell id="BtRRs1AipNndvJUo6PaD-28" value="twilio-adapter" style="whiteSpace=wrap;html=1;fillColor=#ffe6cc;strokeColor=#d79b00;" parent="BtRRs1AipNndvJUo6PaD-25" vertex="1">
          <mxGeometry x="8" y="34" width="110" height="38" as="geometry" />
        </mxCell>
        <mxCell id="aZxM8rf4FDybqePDUtTl-1" style="edgeStyle=orthogonalEdgeStyle;rounded=0;orthogonalLoop=1;jettySize=auto;html=1;exitX=0.75;exitY=0;exitDx=0;exitDy=0;entryX=0.25;entryY=1;entryDx=0;entryDy=0;dashed=1;flowAnimation=1;" parent="1" source="BtRRs1AipNndvJUo6PaD-27" target="BtRRs1AipNndvJUo6PaD-24" edge="1">
          <mxGeometry relative="1" as="geometry">
            <Array as="points">
              <mxPoint x="467" y="-302" />
              <mxPoint x="417" y="-302" />
            </Array>
          </mxGeometry>
        </mxCell>
        <mxCell id="HeFp6EwtRoWDKLP-dGdm-1" value="Azure Cache Redis" style="overflow=block;blockSpacing=1;whiteSpace=wrap;image;aspect=fixed;html=1;points=[];align=center;verticalAlign=top;image=img/lib/mscae/Cache_Redis_Product.svg;fontSize=8.5;spacing=0;strokeColor=#5e5e5e;strokeOpacity=100;rounded=1;absoluteArcSize=1;arcSize=9;fillColor=#BA141A;strokeWidth=2.3;lucidId=yAqGH9rEQmGy;" vertex="1" parent="1">
          <mxGeometry x="926" y="-120" width="36" height="36" as="geometry" />
        </mxCell>
        <mxCell id="HeFp6EwtRoWDKLP-dGdm-2" value="Key Vault" style="html=1;overflow=block;blockSpacing=1;whiteSpace=wrap;verticalLabelPosition=bottom;verticalAlign=top;shape=mxgraph.mscae.cloud.key_vault;fontSize=8.5;spacing=0;strokeColor=#5e5e5e;strokeOpacity=100;rounded=1;absoluteArcSize=1;arcSize=9;fillColor=#0078d7;strokeWidth=2.3;lucidId=yAqGW0t9Lk7K;" vertex="1" parent="1">
          <mxGeometry x="869" y="-273" width="40" height="33" as="geometry" />
        </mxCell>
        <mxCell id="HeFp6EwtRoWDKLP-dGdm-3" value="Kubernetes" style="overflow=block;blockSpacing=1;whiteSpace=wrap;image;aspect=fixed;html=1;align=center;image=img/lib/mscae/Kubernetes.svg;fontSize=6.8;spacing=0;strokeColor=#5e5e5e;strokeOpacity=100;rounded=1;absoluteArcSize=1;arcSize=9;fillColor=#326ce5;strokeWidth=2.3;lucidId=yAqGIVtI8p~S;" vertex="1" parent="1">
          <mxGeometry x="909" y="-209" width="53" height="53" as="geometry" />
        </mxCell>
        <mxCell id="HeFp6EwtRoWDKLP-dGdm-4" value="" style="html=1;overflow=block;blockSpacing=1;whiteSpace=wrap;shape=image;fontSize=13;spacing=3.8;strokeColor=none;strokeOpacity=100;strokeWidth=0;image=https://images.lucid.app/images/e96e886f-489f-465c-98d0-d0cf3106f44c/content;imageAspect=0;lucidId=yAqGuwlJZ3jc;" vertex="1" parent="1">
          <mxGeometry x="830" y="-206" width="50" height="50" as="geometry" />
        </mxCell>
        <mxCell id="HeFp6EwtRoWDKLP-dGdm-5" value="" style="html=1;overflow=block;blockSpacing=1;whiteSpace=wrap;shape=image;fontSize=13;spacing=3.8;strokeColor=none;strokeOpacity=100;strokeWidth=0;image=https://images.lucid.app/images/687504e8-28b5-4068-8c1b-fc41992a58ab/content;imageAspect=0;lucidId=yAqG3lLnEf6V;" vertex="1" parent="1">
          <mxGeometry x="937" y="-267" width="40" height="40" as="geometry" />
        </mxCell>
        <mxCell id="HeFp6EwtRoWDKLP-dGdm-6" value="" style="html=1;overflow=block;blockSpacing=1;whiteSpace=wrap;shape=image;fontSize=13;spacing=3.8;strokeColor=none;strokeOpacity=100;strokeWidth=0;image=https://images.lucid.app/images/f11067d4-dc3a-4c39-adf5-3cc421d414b3/content;imageAspect=0;lucidId=yAqGAUYyQYBR;" vertex="1" parent="1">
          <mxGeometry x="987" y="-245" width="39" height="39" as="geometry" />
        </mxCell>
        <mxCell id="HeFp6EwtRoWDKLP-dGdm-7" value="" style="html=1;overflow=block;blockSpacing=1;whiteSpace=wrap;shape=image;fontSize=13;spacing=3.8;strokeColor=none;strokeOpacity=100;strokeWidth=0;image=https://images.lucid.app/images/f51b56ab-9fb1-4c23-9bc0-d21630297bea/content;imageAspect=0;lucidId=yAqGwtVUSd2V;" vertex="1" parent="1">
          <mxGeometry x="977" y="-183" width="49" height="49" as="geometry" />
        </mxCell>
        <mxCell id="HeFp6EwtRoWDKLP-dGdm-9" value="Logging" style="overflow=block;blockSpacing=1;whiteSpace=wrap;html=1;verticalLabelPosition=bottom;verticalAlign=top;shape=mxgraph.gcp2.logging;fontSize=8.3;fontColor=#333333;spacing=0;strokeColor=#5e5e5e;strokeOpacity=100;fillOpacity=100;fillColor=#4285f4;strokeWidth=2.3;lucidId=yAqGxk1t0a9s;" vertex="1" parent="1">
          <mxGeometry x="853" y="-151" width="37" height="33" as="geometry" />
        </mxCell>
        <mxCell id="HeFp6EwtRoWDKLP-dGdm-11" value="Application Gateway" style="overflow=block;blockSpacing=1;whiteSpace=wrap;image;aspect=fixed;html=1;points=[];align=center;verticalAlign=top;image=img/lib/mscae/Application_Gateway.svg;fontSize=13;spacing=0;strokeColor=#5e5e5e;strokeOpacity=100;rounded=1;absoluteArcSize=1;arcSize=9;fillColor=#7FBA00;strokeWidth=2.3;lucidId=yAqGiUUvlTo3;" vertex="1" parent="1">
          <mxGeometry x="977" y="392" width="79" height="71" as="geometry" />
        </mxCell>
        <mxCell id="HeFp6EwtRoWDKLP-dGdm-15" style="edgeStyle=orthogonalEdgeStyle;rounded=0;orthogonalLoop=1;jettySize=auto;html=1;exitX=0;exitY=0.75;exitDx=0;exitDy=0;entryX=1;entryY=0.5;entryDx=0;entryDy=0;dashed=1;flowAnimation=1;" edge="1" parent="1" source="HeFp6EwtRoWDKLP-dGdm-13" target="o0oqG4mP_P4ncCSwfBv9-3">
          <mxGeometry relative="1" as="geometry" />
        </mxCell>
        <mxCell id="HeFp6EwtRoWDKLP-dGdm-13" value="API Management " style="html=1;overflow=block;blockSpacing=1;whiteSpace=wrap;fontSize=13;spacing=0;strokeColor=#5e5e5e;strokeOpacity=100;fillOpacity=100;rounded=1;absoluteArcSize=1;arcSize=9;fillColor=#198ab3;dashed=1;fixDash=1;strokeWidth=2.3;lucidId=yAqGRTnpg_jy;" vertex="1" parent="1">
          <mxGeometry x="766" y="402.5" width="102" height="56.5" as="geometry" />
        </mxCell>
        <mxCell id="HeFp6EwtRoWDKLP-dGdm-14" value="" style="edgeStyle=none;orthogonalLoop=1;jettySize=auto;html=1;rounded=0;dashed=1;flowAnimation=1;" edge="1" parent="1" source="HeFp6EwtRoWDKLP-dGdm-11" target="HeFp6EwtRoWDKLP-dGdm-13">
          <mxGeometry width="80" relative="1" as="geometry">
            <mxPoint x="752" y="315" as="sourcePoint" />
            <mxPoint x="832" y="315" as="targetPoint" />
            <Array as="points" />
          </mxGeometry>
        </mxCell>
        <mxCell id="HeFp6EwtRoWDKLP-dGdm-24" value="" style="group" vertex="1" connectable="0" parent="1">
          <mxGeometry x="416" y="809" width="100" height="41" as="geometry" />
        </mxCell>
        <mxCell id="aZxM8rf4FDybqePDUtTl-6" value="" style="shape=image;verticalLabelPosition=bottom;labelBackgroundColor=#ffffff;verticalAlign=top;aspect=fixed;imageAspect=0;image=data:image/svg+xml,PHN2ZyB4bWxuczpkYz0iaHR0cDovL3B1cmwub3JnL2RjL2VsZW1lbnRzLzEuMS8iIHhtbG5zOmNjPSJodHRwOi8vY3JlYXRpdmVjb21tb25zLm9yZy9ucyMiIHhtbG5zOnJkZj0iaHR0cDovL3d3dy53My5vcmcvMTk5OS8wMi8yMi1yZGYtc3ludGF4LW5zIyIgeG1sbnM6c3ZnPSJodHRwOi8vd3d3LnczLm9yZy8yMDAwL3N2ZyIgeG1sbnM9Imh0dHA6Ly93d3cudzMub3JnLzIwMDAvc3ZnIiB4bWxuczpzb2RpcG9kaT0iaHR0cDovL3NvZGlwb2RpLnNvdXJjZWZvcmdlLm5ldC9EVEQvc29kaXBvZGktMC5kdGQiIHhtbG5zOmlua3NjYXBlPSJodHRwOi8vd3d3Lmlua3NjYXBlLm9yZy9uYW1lc3BhY2VzL2lua3NjYXBlIiB2ZXJzaW9uPSIxLjEiIGlkPSJzdmc1MDMyOSIgaW5rc2NhcGU6dmVyc2lvbj0iMC45Mi4zICgyNDA1NTQ2LCAyMDE4LTAzLTExKSIgc29kaXBvZGk6ZG9jbmFtZT0iYXp1cmUuc3ZnIiB4PSIwcHgiIHk9IjBweCIgdmlld0JveD0iMCAwIDYyLjc2IDQ4LjQ4IiBzdHlsZT0iZW5hYmxlLWJhY2tncm91bmQ6bmV3IDAgMCA2Mi43NiA0OC40ODsiIHhtbDpzcGFjZT0icHJlc2VydmUiPjxtZXRhZGF0YSBpZD0ibWV0YWRhdGExNjgwNyI+PHJkZjpSREY+PGNjOldvcmsgcmRmOmFib3V0PSIiPjxkYzpmb3JtYXQ+aW1hZ2Uvc3ZnK3htbDwvZGM6Zm9ybWF0PjxkYzp0eXBlIHJkZjpyZXNvdXJjZT0iaHR0cDovL3B1cmwub3JnL2RjL2RjbWl0eXBlL1N0aWxsSW1hZ2UiLz48ZGM6dGl0bGUvPjwvY2M6V29yaz48L3JkZjpSREY+PC9tZXRhZGF0YT48ZGVmcyBpZD0iZGVmczE2ODA1Ii8+JiN4YTs8c29kaXBvZGk6bmFtZWR2aWV3IGJvcmRlcmNvbG9yPSIjNjY2NjY2IiBib3JkZXJvcGFjaXR5PSIxIiBmaXQtbWFyZ2luLWJvdHRvbT0iMCIgZml0LW1hcmdpbi1sZWZ0PSIwIiBmaXQtbWFyZ2luLXJpZ2h0PSIwIiBmaXQtbWFyZ2luLXRvcD0iMCIgZ3JpZHRvbGVyYW5jZT0iMTAiIGd1aWRldG9sZXJhbmNlPSIxMCIgaWQ9Im5hbWVkdmlldzUwMzMxIiBpbmtzY2FwZTpjdXJyZW50LWxheWVyPSJzdmc1MDMyOSIgaW5rc2NhcGU6Y3g9IjQ5LjM2MTQ4NiIgaW5rc2NhcGU6Y3k9IjEyLjA3MjQ5NyIgaW5rc2NhcGU6cGFnZW9wYWNpdHk9IjAiIGlua3NjYXBlOnBhZ2VzaGFkb3c9IjIiIGlua3NjYXBlOndpbmRvdy1oZWlnaHQ9IjEwMTciIGlua3NjYXBlOndpbmRvdy1tYXhpbWl6ZWQ9IjEiIGlua3NjYXBlOndpbmRvdy13aWR0aD0iMTkyMCIgaW5rc2NhcGU6d2luZG93LXg9Ii04IiBpbmtzY2FwZTp3aW5kb3cteT0iLTgiIGlua3NjYXBlOnpvb209IjUuOTY3MzU3NyIgb2JqZWN0dG9sZXJhbmNlPSIxMCIgcGFnZWNvbG9yPSIjZmZmZmZmIiBzaG93Z3JpZD0iZmFsc2UiPiYjeGE7CTwvc29kaXBvZGk6bmFtZWR2aWV3PiYjeGE7JiN4YTs8cGF0aCBpZD0icGF0aDUwMzI0IiBpbmtzY2FwZTpjb25uZWN0b3ItY3VydmF0dXJlPSIwIiBzdHlsZT0iZmlsbDojMjA3NUI4OyIgZD0iTTE1LjY4LDQ4LjM2YzAuMDctMC4wNyw2LjQtMS4yMywxNC4wNi0yLjU3ICBjNy42NS0xLjM1LDEzLjk3LTIuNSwxNC4wMy0yLjU2YzAuMTItMC4xMS0wLjc1LTEuMTctMTAuMjItMTIuNDZjLTIuNTItMi45OS00LjYzLTUuNTYtNC43LTUuN2MtMC4wOS0wLjE5LDAuODktMy4wNCwzLjczLTEwLjgzICBjMi4xMS01LjgxLDMuODctMTAuNjUsMy45MS0xMC43NWMwLjAzLTAuMDksMC4xMy0wLjE3LDAuMjItMC4xN2MwLjE5LDAsMjYuMTQsNDQuOTEsMjYuMDUsNDUuMDZjLTAuMDQsMC4wNi0xMC42OCwwLjEtMjMuNjQsMC4xICBDMjUuMjEsNDguNDgsMTUuNiw0OC40MywxNS42OCw0OC4zNnogTTAsNDMuMDFjLTAuMDUtMC4xMywwLjU0LTEuMjksMS40NS0yLjg4YzAuODQtMS40Niw0LjQyLTcuNjYsNy45NS0xMy43N2w2LjQxLTExLjFsOS4wOC03LjYzICBDMjkuODgsMy40NCwzNC4wNCwwLDM0LjEzLDBjMC4xLDAsMC4xMywwLjA5LDAuMDgsMC4yNEMzMy43NCwxLjQ4LDE0LjMsNDIuOTIsMTQuMTMsNDMuMDVjLTAuMTksMC4xMy0xLjg0LDAuMTctNy4xNSwwLjE3ICBDMC45MSw0My4yMiwwLjA3LDQzLjE5LDAsNDMuMDF6Ii8+JiN4YTs8L3N2Zz4=;" parent="HeFp6EwtRoWDKLP-dGdm-24" vertex="1">
          <mxGeometry width="44.63" height="34" as="geometry" />
        </mxCell>
        <mxCell id="aZxM8rf4FDybqePDUtTl-8" value="AZURE" style="text;html=1;align=center;verticalAlign=middle;whiteSpace=wrap;rounded=0;fontSize=14;fontFamily=Verdana;" parent="HeFp6EwtRoWDKLP-dGdm-24" vertex="1">
          <mxGeometry x="40" y="4" width="60" height="37" as="geometry" />
        </mxCell>
        <mxCell id="HeFp6EwtRoWDKLP-dGdm-26" value="" style="html=1;overflow=block;blockSpacing=1;whiteSpace=wrap;shape=image;fontSize=13;spacing=3.8;strokeColor=none;strokeOpacity=100;strokeWidth=0;image=https://images.lucid.app/images/f1fcc006-0211-4f73-a4db-56722caffb7e/content;imageAspect=0;lucidId=zAqGvR~LBCwX;" vertex="1" parent="1">
          <mxGeometry x="1061" y="385.5" width="36" height="36" as="geometry" />
        </mxCell>
        <mxCell id="HeFp6EwtRoWDKLP-dGdm-27" value="SSL" style="html=1;overflow=block;blockSpacing=1;whiteSpace=wrap;fontSize=11.7;fontColor=#333333;spacing=3.8;strokeOpacity=0;fillOpacity=0;rounded=1;absoluteArcSize=1;arcSize=9;fillColor=#ffffff;strokeWidth=2.3;lucidId=yAqGQngfVfc6;" vertex="1" parent="1">
          <mxGeometry x="1061" y="347" width="36" height="45" as="geometry" />
        </mxCell>
        <mxCell id="HeFp6EwtRoWDKLP-dGdm-28" value="" style="group" vertex="1" connectable="0" parent="1">
          <mxGeometry x="142" y="646" width="156" height="183" as="geometry" />
        </mxCell>
        <mxCell id="HeFp6EwtRoWDKLP-dGdm-29" value="" style="whiteSpace=wrap;html=1;dashed=1;dashPattern=8 8;fillColor=none;strokeColor=#9673a6;" vertex="1" parent="HeFp6EwtRoWDKLP-dGdm-28">
          <mxGeometry x="-1" width="156" height="183" as="geometry" />
        </mxCell>
        <mxCell id="HeFp6EwtRoWDKLP-dGdm-30" value="KYC Adapters" style="text;html=1;align=center;verticalAlign=middle;whiteSpace=wrap;rounded=0;fontSize=9;fillColor=#D4E1F5;strokeColor=#82b366;" vertex="1" parent="HeFp6EwtRoWDKLP-dGdm-28">
          <mxGeometry width="99" height="23" as="geometry" />
        </mxCell>
        <mxCell id="HeFp6EwtRoWDKLP-dGdm-31" value="sumsub-adapter" style="whiteSpace=wrap;html=1;fillColor=#d5e8d4;strokeColor=#82b366;" vertex="1" parent="HeFp6EwtRoWDKLP-dGdm-28">
          <mxGeometry x="8" y="34" width="110" height="38" as="geometry" />
        </mxCell>
        <mxCell id="HeFp6EwtRoWDKLP-dGdm-33" value="forthline-adapter" style="whiteSpace=wrap;html=1;fillColor=#d5e8d4;strokeColor=#82b366;" vertex="1" parent="HeFp6EwtRoWDKLP-dGdm-28">
          <mxGeometry x="9" y="83" width="110" height="38" as="geometry" />
        </mxCell>
        <mxCell id="HeFp6EwtRoWDKLP-dGdm-35" style="edgeStyle=orthogonalEdgeStyle;rounded=0;orthogonalLoop=1;jettySize=auto;html=1;exitX=1;exitY=0.25;exitDx=0;exitDy=0;entryX=0.75;entryY=1;entryDx=0;entryDy=0;dashed=1;flowAnimation=1;" edge="1" parent="1" source="HeFp6EwtRoWDKLP-dGdm-29" target="o0oqG4mP_P4ncCSwfBv9-11">
          <mxGeometry relative="1" as="geometry" />
        </mxCell>
        <mxCell id="HeFp6EwtRoWDKLP-dGdm-36" value="webhook" style="edgeLabel;html=1;align=center;verticalAlign=middle;resizable=0;points=[];" vertex="1" connectable="0" parent="HeFp6EwtRoWDKLP-dGdm-35">
          <mxGeometry x="-0.0481" y="-1" relative="1" as="geometry">
            <mxPoint y="-16" as="offset" />
          </mxGeometry>
        </mxCell>
        <mxCell id="HeFp6EwtRoWDKLP-dGdm-38" value="Sumsub" style="whiteSpace=wrap;html=1;fillColor=#e1d5e7;strokeColor=#9673a6;" vertex="1" parent="1">
          <mxGeometry x="94" y="946" width="120" height="101" as="geometry" />
        </mxCell>
        <mxCell id="HeFp6EwtRoWDKLP-dGdm-39" value="Forthline" style="whiteSpace=wrap;html=1;fillColor=#e1d5e7;strokeColor=#9673a6;" vertex="1" parent="1">
          <mxGeometry x="232" y="946" width="120" height="101" as="geometry" />
        </mxCell>
        <mxCell id="HeFp6EwtRoWDKLP-dGdm-40" style="edgeStyle=orthogonalEdgeStyle;rounded=0;orthogonalLoop=1;jettySize=auto;html=1;exitX=0.25;exitY=1;exitDx=0;exitDy=0;entryX=0.5;entryY=0;entryDx=0;entryDy=0;dashed=1;flowAnimation=1;" edge="1" parent="1" source="HeFp6EwtRoWDKLP-dGdm-29" target="HeFp6EwtRoWDKLP-dGdm-38">
          <mxGeometry relative="1" as="geometry" />
        </mxCell>
        <mxCell id="HeFp6EwtRoWDKLP-dGdm-41" style="edgeStyle=orthogonalEdgeStyle;rounded=0;orthogonalLoop=1;jettySize=auto;html=1;exitX=0.75;exitY=1;exitDx=0;exitDy=0;dashed=1;flowAnimation=1;" edge="1" parent="1" source="HeFp6EwtRoWDKLP-dGdm-29" target="HeFp6EwtRoWDKLP-dGdm-39">
          <mxGeometry relative="1" as="geometry" />
        </mxCell>
        <mxCell id="HeFp6EwtRoWDKLP-dGdm-42" value="" style="html=1;overflow=block;blockSpacing=1;whiteSpace=wrap;shape=image;fontSize=13;spacing=3.8;strokeColor=none;strokeOpacity=100;strokeWidth=0;image=https://images.lucid.app/images/5a692e79-e639-4ca0-bb67-ef932faec164/content;imageAspect=0;lucidId=zAqGPelzK5gk;" vertex="1" parent="1">
          <mxGeometry x="1268" y="374" width="96" height="96" as="geometry" />
        </mxCell>
        <mxCell id="HeFp6EwtRoWDKLP-dGdm-43" value="Mobile App Channel" style="html=1;overflow=block;blockSpacing=1;whiteSpace=wrap;fontSize=16.7;fontColor=#333333;spacing=3.8;strokeOpacity=0;fillOpacity=0;rounded=1;absoluteArcSize=1;arcSize=9;fillColor=#ffffff;strokeWidth=2.3;lucidId=yAqG6X8Uf8wj;" vertex="1" parent="1">
          <mxGeometry x="1214" y="470" width="215" height="48" as="geometry" />
        </mxCell>
        <mxCell id="HeFp6EwtRoWDKLP-dGdm-44" value="translation service" style="whiteSpace=wrap;html=1;fillColor=#fff2cc;strokeColor=#d6b656;" vertex="1" parent="1">
          <mxGeometry x="687" y="96" width="120" height="39" as="geometry" />
        </mxCell>
        <mxCell id="HeFp6EwtRoWDKLP-dGdm-46" value="" style="group" vertex="1" connectable="0" parent="1">
          <mxGeometry x="-69" y="506" width="156" height="183" as="geometry" />
        </mxCell>
        <mxCell id="BtRRs1AipNndvJUo6PaD-5" value="" style="whiteSpace=wrap;html=1;dashed=1;dashPattern=8 8;fillColor=none;strokeColor=#9673a6;" parent="HeFp6EwtRoWDKLP-dGdm-46" vertex="1">
          <mxGeometry width="156" height="183" as="geometry" />
        </mxCell>
        <mxCell id="BtRRs1AipNndvJUo6PaD-15" value="Payment Adapters" style="text;html=1;align=center;verticalAlign=middle;whiteSpace=wrap;rounded=0;fontSize=9;fillColor=#e1d5e7;strokeColor=#9673a6;" parent="HeFp6EwtRoWDKLP-dGdm-46" vertex="1">
          <mxGeometry x="1" width="87" height="23" as="geometry" />
        </mxCell>
        <mxCell id="o0oqG4mP_P4ncCSwfBv9-18" value="numeral-adapter" style="whiteSpace=wrap;html=1;fillColor=#dae8fc;strokeColor=#6c8ebf;" parent="HeFp6EwtRoWDKLP-dGdm-46" vertex="1">
          <mxGeometry x="7" y="37" width="116" height="37" as="geometry" />
        </mxCell>
        <mxCell id="HeFp6EwtRoWDKLP-dGdm-52" value="" style="html=1;overflow=block;blockSpacing=1;whiteSpace=wrap;shape=image;fontSize=13;spacing=3.8;strokeColor=none;strokeOpacity=100;strokeWidth=0;image=https://images.lucid.app/images/f1fcc006-0211-4f73-a4db-56722caffb7e/content;imageAspect=0;lucidId=zAqGvR~LBCwX;" vertex="1" parent="1">
          <mxGeometry x="-117" y="214" width="36" height="36" as="geometry" />
        </mxCell>
        <mxCell id="HeFp6EwtRoWDKLP-dGdm-53" value="" style="html=1;overflow=block;blockSpacing=1;whiteSpace=wrap;shape=image;fontSize=13;spacing=3.8;strokeColor=none;strokeOpacity=100;strokeWidth=0;image=https://images.lucid.app/images/f1fcc006-0211-4f73-a4db-56722caffb7e/content;imageAspect=0;lucidId=zAqGvR~LBCwX;" vertex="1" parent="1">
          <mxGeometry x="-120" y="610" width="36" height="36" as="geometry" />
        </mxCell>
        <mxCell id="HeFp6EwtRoWDKLP-dGdm-54" value="" style="html=1;overflow=block;blockSpacing=1;whiteSpace=wrap;shape=image;fontSize=13;spacing=3.8;strokeColor=none;strokeOpacity=100;strokeWidth=0;image=https://images.lucid.app/images/f1fcc006-0211-4f73-a4db-56722caffb7e/content;imageAspect=0;lucidId=zAqGvR~LBCwX;" vertex="1" parent="1">
          <mxGeometry x="196" y="880" width="36" height="36" as="geometry" />
        </mxCell>
        <mxCell id="HeFp6EwtRoWDKLP-dGdm-55" value="" style="html=1;overflow=block;blockSpacing=1;whiteSpace=wrap;shape=image;fontSize=13;spacing=3.8;strokeColor=none;strokeOpacity=100;strokeWidth=0;image=https://images.lucid.app/images/f1fcc006-0211-4f73-a4db-56722caffb7e/content;imageAspect=0;lucidId=zAqGvR~LBCwX;" vertex="1" parent="1">
          <mxGeometry x="440" y="-340" width="36" height="36" as="geometry" />
        </mxCell>
      </root>
    </mxGraphModel>
  </diagram>
</mxfile>
